# xmcd CD database file
#
# Track frame offsets:
#	225
#	12484
#	29082
#	41668
#	57753
#	80162
#	90510
#	109206
#	121241
#	138412
#	160642
#	176376
#	188819
#	200544
#	222802
#	235571
#
# Disc length: 3318 seconds
#
# Revision: 2
# Processed by: cddbd v1.5.2PL0 Copyright (c) Steve Scherf et al.
# Submitted via: CDex 1.70beta2
#
DISCID=d50cf310
DTITLE=Prickly Pair - Rendezvous With The Moon
DYEAR=2000
DGENRE=Country
TTITLE0=Gold Rush - Wolves 'A Howlin'
TTITLE1=Rendezvous With The Moon
TTITLE2=The Sad Irish Cowgirl
TTITLE3=Paint The Town
TTITLE4=Song Of Wyoming
TTITLE5=Hell Amongst The Yearlings - Forked Horn Deer
TTITLE6=Sarah Hogan
TTITLE7=On The Mesa Trail
TTITLE8=Small Victory
TTITLE9=The Buggy Song
TTITLE10=Nellie Kane
TTITLE11=Lonesome Moonlight Waltz
TTITLE12=Steal The Show
TTITLE13=Spanish Is A Loving Tongue
TTITLE14=In Matters Of The Heart
TTITLE15=So Long To The Red [Wind] River Valley
EXTD=\n YEAR: 2000
EXTT0=
EXTT1=
EXTT2=
EXTT3=
EXTT4=
EXTT5=
EXTT6=
EXTT7=
EXTT8=
EXTT9=
EXTT10=
EXTT11=
EXTT12=
EXTT13=
EXTT14=
EXTT15=
PLAYORDER=
